<?xml version="1.0" standalone="no"?><!DOCTYPE svg PUBLIC "-//W3C//DTD SVG 1.1//EN" "http://www.w3.org/Graphics/SVG/1.1/DTD/svg11.dtd"><svg class="icon" width="16px" height="16.00px" viewBox="0 0 1024 1024" version="1.1" xmlns="http://www.w3.org/2000/svg"><path fill="#ffffff" d="M934.9 650.6H76.1c-10.7 0-18.4 10.3-15.4 20.6L106.1 825c2 6.8 8.3 11.5 15.4 11.5h683.2c4.7 0 9.2-2.1 12.3-5.7l130.1-153.7c8.9-10.5 1.5-26.5-12.2-26.5zM125.9 616h669.4c8.9 0 16.1-7.2 16.1-16.1v-83.3c0-8.9-7.2-16.1-16.1-16.1h-36.2V204.1c0-8.8-7.1-15.9-15.9-15.9h-38.5c-8.8 0-15.9 7.1-15.9 15.9v296.4h-43.6V204.1c0-8.8-7.1-15.9-15.9-15.9h-38.7c-8.8 0-15.9 7.1-15.9 15.9v296.4h-35.3v-99.4c0-8.9-7.2-16.1-16.1-16.1H125.9c-8.9 0-16.1 7.2-16.1 16.1v198.7c0 9 7.2 16.2 16.1 16.2z m195.4-139.5c0-8.9 7.2-16.1 16.1-16.1h38.2c8.9 0 16.1 7.2 16.1 16.1v38.2c0 8.9-7.2 16.1-16.1 16.1h-38.2c-8.9 0-16.1-7.2-16.1-16.1v-38.2z m-134.8 0c0-8.9 7.2-16.1 16.1-16.1h38.2c8.9 0 16.1 7.2 16.1 16.1v38.2c0 8.9-7.2 16.1-16.1 16.1h-38.2c-8.9 0-16.1-7.2-16.1-16.1v-38.2z"  /></svg>